<svg width="84" height="32" viewBox="0 0 84 32" fill="none" xmlns="http://www.w3.org/2000/svg">
<g clip-path="url(#clip0_209_1206)">
<path d="M73.5412 18.3893C73.2173 18.3893 72.9744 18.3083 72.7855 18.1194C72.6235 17.9574 72.5156 17.6875 72.5156 17.3636V7.40416C72.5156 7.08028 72.5965 6.81037 72.7855 6.64843C72.9744 6.48649 73.2173 6.40552 73.5412 6.40552H75.3496C75.7544 6.40552 76.1053 6.43251 76.4022 6.4595C76.6991 6.51348 76.969 6.59445 77.1579 6.75639C77.3738 6.91833 77.5088 7.13426 77.6168 7.45814C77.7247 7.75504 77.7787 8.18688 77.7787 8.6997V16.0951C77.7787 16.7698 77.6977 17.2557 77.5088 17.5795C77.3199 17.9034 77.05 18.1194 76.6991 18.2273C76.3482 18.3353 75.8894 18.3893 75.3496 18.3623L73.5412 18.3893ZM67.7383 0.602578C67.4144 0.629568 67.1445 0.71054 66.9825 0.872482C66.8206 1.03442 66.7396 1.30433 66.7396 1.62821V23.1666C66.7396 23.4904 66.8206 23.7334 67.0095 23.9223C67.1715 24.0842 67.4414 24.1922 67.7653 24.1922H75.2686C76.834 24.1922 78.1836 24.0303 79.2632 23.7064C80.3428 23.3825 81.2065 22.8697 81.8543 22.2219C82.502 21.5741 82.9879 20.7104 83.2578 19.6848C83.5546 18.6592 83.6896 17.4716 83.6896 16.0951V8.6997C83.6896 7.32319 83.5546 6.13561 83.2578 5.10998C82.9609 4.08434 82.502 3.24764 81.8543 2.59987C81.2065 1.92511 80.3428 1.43928 79.2632 1.1154C78.1836 0.791511 76.861 0.629568 75.2686 0.629568L67.7383 0.602578ZM57.9138 14.8265C57.9138 15.4743 57.8868 16.0681 57.8598 16.5809C57.8058 17.0937 57.6978 17.5256 57.5359 17.9034C57.374 18.2813 57.104 18.5512 56.7262 18.7401C56.3753 18.9291 55.8895 19.037 55.2687 19.037C54.6479 19.037 54.1621 18.9291 53.8112 18.7401C53.4334 18.5512 53.1904 18.2813 53.0015 17.9034C52.8396 17.5526 52.7316 17.0937 52.6776 16.5809C52.6236 16.0681 52.5967 15.4743 52.6236 14.8265V9.96825C52.6236 9.32048 52.6506 8.72669 52.6776 8.21387C52.7316 7.70106 52.8396 7.26921 53.0015 6.89134C53.1635 6.51348 53.4334 6.24357 53.8112 6.05464C54.1621 5.86571 54.6479 5.75775 55.2687 5.75775C55.8895 5.75775 56.3753 5.86571 56.7262 6.05464C57.104 6.24357 57.347 6.51348 57.5359 6.89134C57.6978 7.24222 57.8058 7.70106 57.8598 8.21387C57.9138 8.72669 57.9138 9.32048 57.9138 9.96825V14.8265ZM63.6897 8.18688C63.6897 7.80902 63.6627 7.35018 63.6087 6.81037C63.5548 6.27056 63.4468 5.70376 63.2579 5.08299C63.0689 4.46221 62.799 3.86842 62.4482 3.27463C62.0703 2.68084 61.5845 2.14103 60.9637 1.6552C60.3429 1.16938 59.5602 0.764521 58.6155 0.467626C57.6708 0.170732 56.5373 0.0357795 55.2147 0.00878906C53.8922 0.00878906 52.7586 0.170732 51.8139 0.467626C50.8693 0.764521 50.0865 1.16938 49.4658 1.6552C48.845 2.14103 48.3592 2.68084 47.9813 3.27463C47.6034 3.86842 47.3335 4.4892 47.1716 5.08299C46.9827 5.70376 46.8747 6.27056 46.8207 6.81037C46.7667 7.35018 46.7397 7.80902 46.7397 8.18688V16.6079C46.7397 16.9858 46.7667 17.4446 46.8207 17.9844C46.8747 18.5242 46.9827 19.091 47.1716 19.7118C47.3335 20.3326 47.6304 20.9264 47.9813 21.5201C48.3592 22.1139 48.845 22.6537 49.4658 23.1666C50.0865 23.6524 50.8693 24.0572 51.8139 24.3271C52.7586 24.624 53.8922 24.786 55.2147 24.786C56.5373 24.786 57.6708 24.624 58.6155 24.3271C59.5602 24.0303 60.3429 23.6524 60.9637 23.1666C61.5845 22.6807 62.0703 22.1409 62.4482 21.5201C62.826 20.9264 63.0959 20.3056 63.2579 19.7118C63.4198 19.091 63.5548 18.5242 63.6087 17.9844C63.6627 17.4446 63.6897 16.9858 63.6897 16.6079V8.18688ZM38.2917 14.8265C38.2917 15.4743 38.2647 16.0681 38.2378 16.5809C38.1838 17.0937 38.0758 17.5256 37.9139 17.9034C37.7519 18.2813 37.482 18.5512 37.1042 18.7401C36.7533 18.9291 36.2675 19.037 35.6467 19.037C35.0259 19.037 34.5401 18.9291 34.1892 18.7401C33.8113 18.5512 33.5684 18.2813 33.3795 17.9034C33.2175 17.5526 33.1096 17.0937 33.0556 16.5809C33.0016 16.0681 32.9746 15.4743 33.0016 14.8265V9.96825C33.0016 9.32048 33.0286 8.72669 33.0556 8.21387C33.1096 7.70106 33.2175 7.26921 33.3795 6.89134C33.5414 6.51348 33.8113 6.24357 34.1892 6.05464C34.5401 5.86571 35.0259 5.75775 35.6467 5.75775C36.2675 5.75775 36.7533 5.86571 37.1042 6.05464C37.482 6.24357 37.7249 6.51348 37.9139 6.89134C38.0758 7.24222 38.1838 7.70106 38.2378 8.21387C38.2917 8.72669 38.2917 9.32048 38.2917 9.96825V14.8265ZM44.0947 8.18688C44.0947 7.80902 44.0677 7.35018 44.0137 6.81037C43.9597 6.27056 43.8518 5.70376 43.6628 5.08299C43.4739 4.46221 43.204 3.86842 42.8531 3.27463C42.4753 2.68084 41.9894 2.14103 41.3686 1.6552C40.7479 1.16938 39.9651 0.764521 39.0205 0.467626C38.0758 0.170732 36.9422 0.0357795 35.6197 0.00878906C34.2972 0.00878906 33.1636 0.170732 32.2189 0.467626C31.2742 0.764521 30.4915 1.16938 29.8707 1.6552C29.25 2.14103 28.7641 2.68084 28.3863 3.27463C28.0084 3.86842 27.7385 4.4892 27.5765 5.08299C27.3876 5.70376 27.2796 6.27056 27.2257 6.81037C27.1717 7.35018 27.1447 7.80902 27.1447 8.18688V16.6079C27.1447 16.9858 27.1717 17.4446 27.2257 17.9844C27.2796 18.5242 27.3876 19.091 27.5765 19.7118C27.7385 20.3326 28.0354 20.9264 28.3863 21.5201C28.7641 22.1139 29.25 22.6537 29.8707 23.1666C30.4915 23.6524 31.2742 24.0572 32.2189 24.3271C33.1636 24.624 34.2972 24.786 35.6197 24.786C36.9422 24.786 38.0758 24.624 39.0205 24.3271C39.9651 24.0303 40.7479 23.6524 41.3686 23.1666C41.9894 22.6807 42.4753 22.1409 42.8531 21.5201C43.231 20.9264 43.5009 20.3056 43.6628 19.7118C43.8248 19.091 43.9597 18.5242 44.0137 17.9844C44.0677 17.4446 44.0947 16.9858 44.0947 16.6079V8.18688ZM24.1758 0.602578C24.8505 0.602578 25.1744 0.953453 25.1744 1.60122V5.37988C25.1744 5.70376 25.0934 5.94668 24.9315 6.13561C24.7695 6.32454 24.4996 6.40552 24.1758 6.40552H15.3769C15.053 6.40552 14.8101 6.48649 14.6212 6.64843C14.4322 6.81037 14.3512 7.08028 14.3512 7.40416V23.1936C14.3512 23.5174 14.2703 23.7603 14.1083 23.9493C13.9464 24.1112 13.6765 24.2192 13.3526 24.2192H9.38501C9.06113 24.2192 8.81821 24.1382 8.62928 23.9493C8.46734 23.7603 8.35938 23.5174 8.35938 23.1936V1.62821C8.35938 1.30433 8.44035 1.03442 8.62928 0.872482C8.81821 0.71054 9.06113 0.629568 9.38501 0.629568L24.1758 0.602578Z" fill="#B3B3B3"/>
<path d="M82.151 29.454C82.151 29.427 82.1241 29.427 82.1241 29.4C82.1241 29.373 82.1241 29.373 82.151 29.346L83.5006 27.5107C83.5545 27.4297 83.5545 27.3757 83.5276 27.3487C83.5006 27.3217 83.4466 27.2678 83.3656 27.2678H82.394C82.34 27.2678 82.286 27.2678 82.259 27.2948C82.232 27.3217 82.178 27.3487 82.151 27.4027L81.0984 28.8332C81.0714 28.8602 81.0714 28.8602 81.0444 28.8602C81.0174 28.8602 81.0174 28.8332 81.0174 28.8062V27.4837C81.0174 27.3487 80.9635 27.2948 80.8285 27.2948H80.0728C80.0188 27.2948 79.9648 27.3217 79.9378 27.3487C79.9108 27.3757 79.8839 27.4297 79.8839 27.5107V31.7752C79.8839 31.8291 79.9108 31.8831 79.9378 31.9101C79.9648 31.9371 80.0188 31.9641 80.0728 31.9641H80.8285C80.8825 31.9641 80.9365 31.9371 80.9905 31.9101C81.0444 31.8831 81.0444 31.8291 81.0444 31.7752V31.0464V30.9924C81.0444 30.9654 81.0444 30.9654 81.0714 30.9385L81.3413 30.5606C81.3413 30.5336 81.3683 30.5336 81.3953 30.5336C81.4223 30.5336 81.4223 30.5336 81.4493 30.5606L82.286 31.8291C82.313 31.8831 82.34 31.9101 82.394 31.9371C82.4209 31.9641 82.4749 31.9641 82.5289 31.9641H83.5276C83.6085 31.9641 83.6625 31.9371 83.6895 31.8831C83.7165 31.8291 83.7165 31.7752 83.6625 31.7212L82.151 29.454ZM76.1052 27.2678C76.0512 27.2678 75.9972 27.2948 75.9703 27.3217C75.9433 27.3487 75.9163 27.4027 75.9163 27.4837V30.4526C75.9163 30.5336 75.9163 30.6146 75.9433 30.7225C75.9433 30.8305 75.9702 30.9385 76.0242 31.0734C76.0512 31.1814 76.1052 31.3163 76.1862 31.4243C76.2671 31.5322 76.3481 31.6402 76.4831 31.7482C76.618 31.8561 76.753 31.9101 76.9419 31.9911C77.1308 32.0451 77.3468 32.0721 77.6167 32.0721C77.8866 32.0721 78.1025 32.0451 78.2914 31.9911C78.4803 31.9371 78.6423 31.8561 78.7503 31.7482C78.8852 31.6402 78.9662 31.5322 79.0472 31.4243C79.1281 31.3163 79.1821 31.1814 79.2091 31.0734C79.2361 30.9654 79.2631 30.8305 79.2631 30.7225C79.2631 30.6146 79.2901 30.5336 79.2901 30.4526V27.4837C79.2901 27.3487 79.2361 27.2948 79.1011 27.2948H78.3454C78.2914 27.2948 78.2374 27.3217 78.2104 27.3487C78.1835 27.3757 78.1565 27.4297 78.1565 27.5107V30.4796C78.1565 30.5876 78.1295 30.6686 78.1025 30.7495C78.0755 30.8305 78.0215 30.8845 77.9405 30.9115C77.8596 30.9385 77.7786 30.9654 77.6436 30.9654C77.5087 30.9654 77.4277 30.9385 77.3468 30.9115C77.2658 30.8845 77.2118 30.8305 77.1848 30.7495C77.1578 30.6686 77.1308 30.5876 77.1308 30.4796C77.1308 30.3717 77.1038 30.2637 77.1308 30.1287V27.5107C77.1308 27.3757 77.0768 27.3217 76.9419 27.3217L76.1052 27.2678ZM75.2415 30.7765C75.3765 30.7765 75.4304 30.8305 75.4304 30.9654V31.7212C75.4304 31.7752 75.4034 31.8291 75.3765 31.8561C75.3495 31.8831 75.2955 31.9101 75.2145 31.9101H74.4588C74.4048 31.9101 74.3508 31.8831 74.3238 31.8561C74.2968 31.8291 74.2699 31.7752 74.2699 31.7212V30.9654C74.2699 30.9115 74.2968 30.8575 74.3238 30.8035C74.3508 30.7765 74.4048 30.7495 74.4588 30.7495L75.2415 30.7765ZM72.6234 30.0748V30.4256C72.6234 30.5336 72.5965 30.6146 72.5695 30.6955C72.5425 30.7765 72.4885 30.8305 72.4075 30.8575C72.3265 30.8845 72.2456 30.9115 72.1106 30.9115C71.9757 30.9115 71.8947 30.8845 71.8137 30.8575C71.7328 30.8305 71.6788 30.7765 71.6518 30.6955C71.6248 30.6146 71.5978 30.5336 71.5978 30.4256C71.5978 30.3177 71.5708 30.2097 71.5978 30.0748V29.1301V28.7792C71.5978 28.6713 71.6248 28.5903 71.6518 28.5093C71.6788 28.4284 71.7328 28.3744 71.8137 28.3474C71.8947 28.3204 71.9757 28.2934 72.1106 28.2934C72.2456 28.2934 72.3265 28.3204 72.4075 28.3474C72.4885 28.3744 72.5425 28.4284 72.5695 28.5093C72.5965 28.5903 72.6234 28.6713 72.6234 28.7792V30.0748ZM73.784 28.7522C73.784 28.6713 73.784 28.5903 73.757 28.4823C73.757 28.3744 73.73 28.2664 73.7031 28.1315C73.6761 28.0235 73.6221 27.8885 73.5411 27.7806C73.4601 27.6726 73.3792 27.5647 73.2442 27.4567C73.1093 27.3487 72.9743 27.2948 72.7854 27.2138C72.5964 27.1598 72.3805 27.1328 72.1106 27.1328C71.8407 27.1328 71.6248 27.1598 71.4359 27.2138C71.2469 27.2678 71.085 27.3487 70.977 27.4567C70.8421 27.5647 70.7611 27.6726 70.6801 27.7806C70.5992 27.8885 70.5452 28.0235 70.5182 28.1315C70.4912 28.2394 70.4642 28.3744 70.4372 28.4823C70.4372 28.5903 70.4102 28.6713 70.4102 28.7522V30.4256C70.4102 30.5066 70.4102 30.5876 70.4372 30.6955C70.4372 30.8035 70.4642 30.9115 70.5182 31.0464C70.5452 31.1544 70.5992 31.2893 70.6801 31.3973C70.7611 31.5053 70.8421 31.6132 70.977 31.7212C71.112 31.8291 71.2469 31.8831 71.4359 31.9641C71.6248 32.0181 71.8407 32.0451 72.1106 32.0451C72.3805 32.0451 72.5964 32.0181 72.7854 31.9641C72.9743 31.9101 73.1363 31.8291 73.2442 31.7212C73.3792 31.6132 73.4601 31.5053 73.5411 31.3973C73.6221 31.2893 73.6761 31.1544 73.7031 31.0464C73.73 30.9385 73.757 30.8035 73.757 30.6955C73.757 30.5876 73.784 30.5066 73.784 30.4256V28.7522ZM66.7125 30.4256C66.7125 30.5066 66.7125 30.5876 66.7395 30.6955C66.7395 30.8035 66.7665 30.9115 66.8205 31.0464C66.8475 31.1544 66.9015 31.2893 66.9825 31.3973C67.0634 31.5053 67.1444 31.6132 67.2793 31.7212C67.4143 31.8291 67.5492 31.8831 67.7382 31.9641C67.9271 32.0181 68.143 32.0451 68.4129 32.0451C68.6559 32.0451 68.8448 32.0181 69.0337 31.9641C69.1957 31.9101 69.3576 31.8561 69.4656 31.7752C69.5735 31.6942 69.6815 31.6132 69.7625 31.5053C69.8434 31.3973 69.8974 31.2893 69.9514 31.1814C70.0054 31.0734 70.0324 30.9654 70.0324 30.8575C70.0594 30.7495 70.0594 30.6686 70.0594 30.5606C70.0594 30.5066 70.0594 30.4796 70.0324 30.4256C70.0054 30.3986 69.9784 30.3717 69.9244 30.3717L69.1687 30.2097C69.1147 30.1827 69.0337 30.2097 69.0067 30.2367C68.9527 30.2637 68.9258 30.3177 68.9258 30.3986C68.9258 30.5066 68.8988 30.5876 68.8448 30.6686C68.8178 30.7495 68.7638 30.8035 68.6828 30.8305C68.6019 30.8575 68.5209 30.8845 68.386 30.8845C68.251 30.8845 68.17 30.8575 68.0891 30.8305C68.0081 30.8035 67.9541 30.7495 67.9271 30.6686C67.9001 30.5876 67.8731 30.5066 67.8731 30.3986C67.8731 30.2907 67.8461 30.1827 67.8731 30.0478V29.1031V28.7522C67.8731 28.6443 67.9001 28.5633 67.9271 28.4823C67.9541 28.4014 68.0081 28.3474 68.0891 28.3204C68.17 28.2934 68.251 28.2664 68.386 28.2664C68.4939 28.2664 68.6019 28.2934 68.6828 28.3204C68.7638 28.3474 68.8178 28.4014 68.8448 28.4823C68.8718 28.5633 68.8988 28.6443 68.8988 28.7252C68.8988 28.8062 68.9258 28.8602 68.9797 28.8872C69.0337 28.9142 69.0877 28.9412 69.1687 28.9412L69.8974 28.7792C69.9514 28.7792 69.9784 28.7522 70.0054 28.7252C70.0324 28.6983 70.0324 28.6443 70.0324 28.6173C70.0324 28.5363 70.0054 28.4284 70.0054 28.3204L69.9244 27.9965C69.8704 27.8885 69.8164 27.7806 69.7355 27.6726C69.6545 27.5647 69.5465 27.4837 69.4386 27.4027C69.3036 27.3217 69.1687 27.2678 69.0067 27.2138C68.8448 27.1598 68.6289 27.1328 68.386 27.1328C68.1161 27.1328 67.9001 27.1598 67.7112 27.2138C67.5223 27.2678 67.3603 27.3487 67.2524 27.4567C67.1174 27.5647 67.0364 27.6726 66.9555 27.7806C66.8745 27.8885 66.8205 28.0235 66.7935 28.1315C66.7665 28.2394 66.7395 28.3744 66.7125 28.4823C66.7125 28.5903 66.6856 28.6713 66.6856 28.7522V30.4256H66.7125ZM66.0918 30.7765C66.2267 30.7765 66.2807 30.8305 66.2807 30.9654V31.7212C66.2807 31.7752 66.2537 31.8291 66.2267 31.8561C66.1997 31.8831 66.1458 31.9101 66.0648 31.9101H65.309C65.2551 31.9101 65.2011 31.8831 65.1741 31.8561C65.1471 31.8291 65.1201 31.7752 65.1201 31.7212V30.9654C65.1201 30.9115 65.1471 30.8575 65.1741 30.8035C65.2011 30.7765 65.2551 30.7495 65.309 30.7495L66.0918 30.7765Z" fill="#B3B3B3"/>
<path d="M16.6721 13.4227C14.162 13.2068 1.90831 15.204 0.990635 13.0448C-0.547818 9.45508 12.3266 11.4794 14.054 11.5333C14.9177 11.5603 15.9973 11.7223 16.6181 11.5603C17.0499 11.4254 17.3468 10.7236 17.8327 10.4537C18.9123 9.80596 20.6666 10.1568 22.1781 10.2918C23.2037 10.3728 24.2024 10.4807 25.282 10.5617C23.7436 10.7776 22.0971 10.9935 20.4777 11.2095C20.2888 11.2365 19.9919 11.1555 19.8569 11.3714C21.5033 11.6413 23.3657 11.6953 25.1471 11.8302C23.3927 12.1001 21.4224 12.1541 19.695 12.478C19.8029 12.6669 20.1268 12.613 20.3158 12.64C21.8542 12.7479 23.5546 12.8829 25.174 12.9638C23.5006 13.2337 21.5573 13.2877 19.8839 13.6116C19.9379 13.8815 20.2888 13.8005 20.4507 13.8005C21.9892 13.9895 23.7166 14.2054 25.309 14.3404C23.5546 14.4753 21.3954 14.8802 19.587 14.9881C18.1835 15.0691 17.3468 14.2594 16.6721 13.4227Z" fill="#B3B3B3"/>
<path d="M12.3272 13.6387C14.2705 13.4767 15.9169 13.3418 16.6727 13.3958C17.0236 13.8276 17.3744 14.2325 17.8603 14.5294C18.3191 14.8263 18.8589 15.0152 19.5606 14.9612C20.5593 14.9072 21.6659 14.7453 22.7455 14.6103C23.5282 14.5024 24.284 14.3944 24.9857 14.3404C24.284 14.2865 23.5822 14.2055 22.8535 14.1245C22.0168 14.0435 21.2071 13.9356 20.4513 13.8276H20.3164C20.1274 13.8276 19.8845 13.8276 19.8575 13.6117V13.5847H19.8845C20.8022 13.3958 21.8278 13.2878 22.8535 13.2068C23.5552 13.1529 24.257 13.0719 24.9047 12.9909C23.6902 12.9099 22.4216 12.829 21.2341 12.748C20.9372 12.721 20.6403 12.694 20.3434 12.694H20.2084C20.0195 12.694 19.8036 12.694 19.6956 12.5321L19.6686 12.5051H19.6956C20.6673 12.3162 21.7199 12.2082 22.7725 12.1272C23.4743 12.0732 24.203 11.9923 24.8778 11.9113C24.5269 11.8843 24.149 11.8573 23.7981 11.8303C22.4486 11.7494 21.0721 11.6684 19.8575 11.4795H19.8036L19.8306 11.4525C19.9385 11.2905 20.1274 11.2905 20.2894 11.2905H20.4513L21.7469 11.1286C22.8265 10.9936 23.9331 10.8317 24.9587 10.6967C24.3379 10.6428 23.7172 10.5888 23.1234 10.5348C22.7995 10.5078 22.5026 10.4808 22.1517 10.4538L21.342 10.3728C20.0465 10.2379 18.697 10.076 17.8333 10.6158C17.6173 10.7507 17.4284 10.9666 17.2665 11.1826C17.0505 11.4255 16.8616 11.6684 16.6187 11.7494C16.1868 11.8573 15.5391 11.8303 14.8913 11.7763C14.5944 11.7494 14.2975 11.7224 14.0276 11.7224C13.7307 11.7224 13.1099 11.6414 12.3002 11.5604C9.38526 11.1016 3.90621 10.5348 1.77397 11.4525C1.01824 11.7763 0.694354 12.2622 1.01824 13.0449C1.63902 14.5294 7.79283 14.0166 12.3272 13.6387ZM16.6727 13.4498C15.9169 13.3958 14.2705 13.5307 12.3272 13.6927C7.79283 14.0705 1.61203 14.5834 0.964258 13.0449C0.613382 12.2352 0.964258 11.7224 1.74698 11.3715C3.90621 10.4538 9.38527 11.0206 12.3272 11.3175C13.1369 11.3985 13.7577 11.4795 14.0546 11.4795C14.3245 11.4795 14.6214 11.5064 14.9183 11.5334C15.5661 11.5874 16.1868 11.6144 16.6187 11.5064C16.8346 11.4525 17.0236 11.2095 17.2395 10.9666C17.4284 10.7507 17.5903 10.5348 17.8333 10.3998C18.7239 9.86003 20.0735 10.022 21.396 10.1569L22.2057 10.2379C22.5026 10.2649 22.8535 10.2919 23.1774 10.3189C23.8791 10.3728 24.5809 10.4538 25.3096 10.4808L25.6065 10.5078L25.3366 10.5618C24.23 10.7237 23.0424 10.8857 21.8548 11.0476L20.5593 11.2096H20.3974C20.2624 11.2096 20.1005 11.2096 19.9925 11.3175C21.2071 11.5064 22.5566 11.5874 23.9061 11.6684C24.3649 11.6954 24.7968 11.7224 25.2556 11.7494L25.5255 11.7763L25.2556 11.8033C24.4999 11.9113 23.6902 11.9923 22.8805 12.0732C21.8548 12.1812 20.8022 12.2622 19.8575 12.4511C19.9385 12.5591 20.1274 12.5591 20.2894 12.5591H20.4243C20.7212 12.5861 21.0181 12.6131 21.315 12.6131C22.6106 12.721 23.9601 12.802 25.2556 12.883L25.5255 12.9099L25.2556 12.9639C24.4999 13.0719 23.7172 13.1529 22.9345 13.2338C21.9358 13.3418 20.9372 13.4228 20.0195 13.6117C20.0735 13.7736 20.2624 13.7466 20.4243 13.7466H20.5593C21.342 13.8276 22.1517 13.9356 22.9614 14.0435C23.7712 14.1245 24.6079 14.2325 25.3906 14.2865V14.3404C24.6079 14.3944 23.7172 14.5294 22.8265 14.6373C21.7469 14.7723 20.6403 14.9342 19.6416 14.9882C18.9399 15.0422 18.3731 14.8533 17.9142 14.5564C17.3744 14.2865 16.9966 13.8816 16.6727 13.4498Z" fill="#B3B3B3"/>
</g>
<defs>
<clipPath id="clip0_209_1206">
<rect width="82.6446" height="32" fill="white" transform="translate(0.882812)"/>
</clipPath>
</defs>
</svg>
