<svg width="61" height="32" viewBox="0 0 61 32" fill="none" xmlns="http://www.w3.org/2000/svg">
<path fill-rule="evenodd" clip-rule="evenodd" d="M26.1012 27.7551C23.5171 29.8774 20.1026 31.1692 16.5034 31.1692C8.01319 31.1692 1.2072 24.3399 1.2072 15.9653C1.2072 7.56744 8.01319 0.738103 16.5034 0.738103C22.1329 0.738103 27.0243 3.78355 29.7004 8.39789C30.0694 8.49024 30.3465 8.58259 30.7152 8.67494C28.0394 3.50685 22.6867 0 16.5034 0C7.64379 0 0.46875 7.10604 0.46875 15.9653C0.46875 24.802 7.64414 32 16.5034 32C20.6564 32 24.4399 30.3391 27.301 27.7551H26.1012Z" fill="#B3B3B3"/>
<path fill-rule="evenodd" clip-rule="evenodd" d="M18.5342 27.0168H60.4086V20.7412H18.5342V27.0168Z" fill="#B3B3B3"/>
<path fill-rule="evenodd" clip-rule="evenodd" d="M20.6556 9.5046L20.4709 10.3354H18.4406C17.8869 16.2419 17.5178 21.0173 17.1488 23.2326C16.3183 27.2009 12.6268 29.4155 10.2274 29.4155C9.39698 29.4155 8.38184 29.0468 8.38184 28.0317C8.38184 27.4779 8.84324 27.0165 9.39698 27.0165C10.2274 27.0165 10.8735 27.6623 11.3349 28.4004C12.6271 27.6623 12.8115 27.0165 13.3652 24.4321C13.6423 23.2326 14.3804 14.6727 14.7494 10.3354H13.0882L13.2729 9.5046H14.9341L15.1188 8.02839C16.0416 2.5836 20.0099 1.9375 21.4868 1.9375C22.2249 1.9375 23.7014 2.30655 23.7014 3.3217C23.7014 3.96745 23.1477 4.2445 22.5939 4.2445C21.5788 4.2445 21.1174 3.69075 20.6556 2.85996C18.9944 3.5984 18.7177 7.659 18.533 9.50425H20.6556V9.5046ZM20.4713 17.072C20.4713 12.7351 23.24 8.95119 27.9464 8.95119C30.8998 8.95119 32.5604 10.2434 32.5604 13.1041C32.5604 17.4414 29.792 21.11 25.0853 21.11C22.1325 21.11 20.4713 19.8178 20.4713 17.072ZM28.7772 13.7502C28.7772 12.6427 28.6848 9.96668 27.0239 9.96668C24.6246 9.96668 24.2552 14.673 24.2552 16.4266C24.2552 17.4418 24.3475 20.1875 26.0084 20.1875C28.4078 20.1872 28.7772 15.5035 28.7772 13.7502ZM33.5758 17.072C33.5758 12.7351 36.4369 8.95119 41.1433 8.95119C44.0044 8.95119 45.7343 10.2434 45.7343 13.1041C45.7343 17.4414 42.8965 21.11 38.1902 21.11C35.3291 21.11 33.5758 19.8178 33.5758 17.072ZM41.9737 13.7502C41.9737 12.6427 41.8817 9.96668 40.2205 9.96668C37.7288 9.96668 37.4521 14.673 37.4521 16.4266C37.4521 17.4418 37.4521 20.1875 39.113 20.1875C41.6043 20.1872 41.9737 15.5035 41.9737 13.7502ZM60.0391 19.7258C58.3775 20.4639 56.3472 21.1096 54.9633 21.1096C54.2252 21.1096 54.3169 20.0018 54.3169 19.5407C54.3169 18.9877 54.3169 18.2485 54.5019 16.7957L54.4092 16.703C53.4864 18.6179 51.6408 21.1096 49.2415 21.1096C47.3955 21.1096 46.5647 19.1717 46.5647 17.5338C46.5647 13.4728 49.7945 9.13589 54.4092 9.13589H55.332C55.7014 6.2748 55.7014 5.07529 55.7014 4.15215C55.7014 3.87545 55.7014 3.5984 55.4244 3.5984C55.1473 3.5984 54.7786 3.69075 53.8555 3.96745L53.6711 3.22935C55.5171 2.5836 57.5474 2.2142 59.3926 2.12185C59.5777 2.12185 59.6697 2.12185 59.6697 2.49091C59.6697 4.89025 57.8237 17.4411 57.8237 18.7106C57.8237 18.9877 57.8237 19.4487 58.1931 19.4487C58.3775 19.4487 59.0239 19.2637 59.762 18.9873L60.0391 19.7258ZM54.0398 15.7805C54.6863 14.2116 54.8706 12.6427 55.24 10.2434C55.055 10.1507 54.8706 10.1507 54.7786 10.1507C51.9175 10.1507 50.533 14.396 50.533 16.703C50.533 17.2567 50.6257 18.6179 51.4561 18.6179C52.656 18.6183 53.6711 16.7033 54.0398 15.7805Z" fill="#B3B3B3"/>
<path fill-rule="evenodd" clip-rule="evenodd" d="M21.0254 22.2173H22.0405L23.3324 24.1553V22.2173H24.1632V25.9085H23.4247L21.8558 23.7866V25.9085H21.0254V22.2173ZM26.5622 22.2173H29.4233V22.9558H27.6697V23.6012H28.7775V24.432H27.6697V25.0778H29.4233V25.9085H26.5622V22.2173ZM32.4691 22.9558H31.4539V22.2173H34.5914V22.9558H33.5762V25.9085H32.4691V22.9558ZM36.4373 22.2173H37.5441L38.0062 24.1553H38.0979L38.5593 22.2173H39.4828L39.9438 24.1553H40.0365L40.4979 22.2173H41.328L40.4052 25.9085H39.4828L38.9287 23.8783L38.3749 25.9085H37.4525L36.4373 22.2173ZM45.0889 26.0012C44.0048 26.0012 43.2663 25.2631 43.2663 24.0629C43.2663 22.8634 44.0044 22.125 45.0889 22.125C46.1967 22.125 46.8422 22.8631 46.8422 24.0629C46.8422 25.2628 46.1964 26.0012 45.0889 26.0012ZM44.4432 24.0626C44.4432 25.0778 44.7202 25.2628 45.0889 25.2628C45.4583 25.2628 45.7347 25.0778 45.7347 24.0626C45.7347 23.0481 45.4583 22.8631 45.0889 22.8631C44.6275 22.8631 44.4432 23.1401 44.4432 24.0626ZM49.0568 22.2173H50.9028C52.1023 22.2173 52.3793 22.7704 52.3793 23.2325C52.3793 23.6939 52.1023 24.0626 51.6412 24.1553L52.3793 25.9085H51.1798L50.6261 24.3396H50.1646V25.9085H49.0568V22.2173ZM50.1646 23.6939H50.7184C50.9948 23.6939 51.2721 23.5089 51.2721 23.3245C51.2721 23.0481 51.0871 22.8631 50.7184 22.8631H50.1646V23.6939ZM54.6866 22.2173H55.7941V23.6939L56.9013 22.2173H57.9164L56.9936 23.4169L58.1008 25.9085H56.9936L56.2555 24.3396L55.7941 24.9861V25.9085H54.6866V22.2173Z" fill="white"/>
</svg>
