<svg width="67" height="32" viewBox="0 0 67 32" fill="none" xmlns="http://www.w3.org/2000/svg">
<path fill-rule="evenodd" clip-rule="evenodd" d="M1.50477 4.43062H5.71068C5.33393 4.17376 4.62467 3.84668 3.45718 3.84668C2.61212 3.84668 1.97929 4.08258 1.50477 4.43062ZM6.41683 4.43062H10.816C10.2976 4.08258 9.57204 3.84668 8.55859 3.84668C7.48849 3.84668 6.79591 4.17376 6.41683 4.43062ZM0.911133 5.01456H11.4445C11.2677 4.78747 11.0554 4.5903 10.816 4.43062H6.41683C6.17201 4.59629 6.05793 4.73248 6.05793 4.73248C6.05793 4.73248 5.95318 4.59629 5.71068 4.43062H1.50477C1.28042 4.59638 1.08057 4.79296 0.911133 5.01456Z" fill="#B3B3B3"/>
<path fill-rule="evenodd" clip-rule="evenodd" d="M0.55957 5.57841H11.7871C11.6952 5.37795 11.5805 5.18878 11.4453 5.01465H0.911485C0.771805 5.19623 0.655794 5.38751 0.55957 5.57841Z" fill="#B3B3B3"/>
<path fill-rule="evenodd" clip-rule="evenodd" d="M0.318499 6.16206H11.9907C11.9405 5.96153 11.8719 5.76606 11.7858 5.57812H0.55867C0.458567 5.77678 0.380191 5.97505 0.318499 6.16206ZM0.166016 6.74639H2.85252C3.02557 6.54541 3.31075 6.36382 3.77673 6.36382C4.24311 6.36382 4.5085 6.54579 4.65904 6.74639H7.63654C7.81231 6.54541 8.10253 6.36382 8.57744 6.36382C9.02596 6.36382 9.29329 6.54579 9.45237 6.74639H12.0892C12.0713 6.54949 12.0382 6.35426 11.9903 6.16245H0.318499C0.255733 6.35378 0.204809 6.5488 0.166016 6.74639Z" fill="#B3B3B3"/>
<path fill-rule="evenodd" clip-rule="evenodd" d="M0.0958907 7.30986H2.59654V7.2695C2.59654 7.2695 2.63922 6.99364 2.85262 6.74609H0.166118C0.104815 7.06076 0.0958907 7.2695 0.0958907 7.2695V7.30986ZM4.85741 7.30986H7.37824V7.2695C7.37824 7.2695 7.4213 6.99364 7.63742 6.74609H4.65992C4.77246 6.89921 4.8409 7.08023 4.8578 7.2695V7.30986H4.85741ZM9.67829 7.30986H12.099V7.2695C12.099 7.2695 12.1184 7.06037 12.0897 6.74609H9.45287C9.64764 6.99364 9.67829 7.2695 9.67829 7.2695V7.30986ZM0.0947266 7.89379H2.59654V7.30986H0.0958907L0.0947266 7.89379ZM4.85741 7.89379H7.37824V7.30986H4.85741V7.89379ZM9.67829 7.89379H12.099V7.30986H9.67829V7.89379Z" fill="#B3B3B3"/>
<path fill-rule="evenodd" clip-rule="evenodd" d="M0.0943253 8.47847H2.59769V7.89453H0.0958776L0.0943253 8.47847ZM4.85817 8.47847H7.379V7.89453H4.85817V8.47847ZM9.67906 8.47847H12.0998V7.89453H9.67906V8.47847ZM0.0927734 9.04223H2.5973V8.47847H0.0939375L0.0927734 9.04223ZM4.85817 9.04223H7.379V8.47847H4.85817V9.04223ZM9.67906 9.04223H12.0998V8.47847H9.67906V9.04223Z" fill="#B3B3B3"/>
<path fill-rule="evenodd" clip-rule="evenodd" d="M0.0919844 9.62593H2.59768V9.04199H0.0927603L0.0919844 9.62593ZM4.85816 9.62593H7.37899V9.04199H4.85816V9.62593ZM9.67904 9.62593H12.0998V9.04199H9.67904V9.62593ZM0.0908203 10.1897H2.59768V9.62593H0.0919844L0.0908203 10.1897ZM4.85816 10.1897H7.37899V9.62593H4.85816V10.1897ZM9.67904 10.1897H12.0998V9.62593H9.67904V10.1897Z" fill="#B3B3B3"/>
<path fill-rule="evenodd" clip-rule="evenodd" d="M0.0890547 10.7748H2.59708V10.1904H0.0902188L0.0890547 10.7748ZM4.85795 10.7748H7.37877V10.1904H4.85795V10.7748ZM9.67883 10.7748H12.0996V10.1904H9.67883V10.7748ZM0.0878906 11.3587H2.59747V10.7748H0.0894425L0.0878906 11.3587ZM4.85795 11.3587H7.37877V10.7748H4.85795V11.3587ZM9.67883 11.3587H12.0996V10.7748H9.67883V11.3587Z" fill="#B3B3B3"/>
<path fill-rule="evenodd" clip-rule="evenodd" d="M0.0869141 11.9222H2.59765V11.3584H0.0880782L0.0869141 11.9222ZM4.85813 11.9222H7.37896V11.3584H4.85813V11.9222ZM9.67902 11.9222H12.0997V11.3584H9.67902V11.9222Z" fill="#B3B3B3"/>
<path fill-rule="evenodd" clip-rule="evenodd" d="M0.0849609 12.5062H2.59686V11.9219H0.0861247L0.0849609 12.5062ZM4.85734 12.5062H7.37817V11.9219H4.85734V12.5062ZM9.67823 12.5062H12.0989V11.9219H9.67823V12.5062Z" fill="#B3B3B3"/>
<path fill-rule="evenodd" clip-rule="evenodd" d="M0.0839844 13.0898H2.59744V12.5059H0.0855366L0.0839844 13.0898ZM4.85792 13.0898H7.37875V12.5059H4.85792V13.0898ZM9.6788 13.0898H12.0995V12.5059H9.6788V13.0898Z" fill="#B3B3B3"/>
<path fill-rule="evenodd" clip-rule="evenodd" d="M0.0831819 13.6536H2.59741V13.0898H0.0839578L0.0831819 13.6536ZM4.85789 13.6536H7.37872V13.0898H4.85789V13.6536ZM9.67878 13.6536H12.0995V13.0898H9.67878V13.6536ZM0.08163 14.2375H2.59703V13.6536H0.0827941L0.08163 14.2375ZM4.85789 14.2375H7.37872V13.6536H4.85789V14.2375ZM9.67878 14.2375H12.0995V13.6536H9.67878V14.2375ZM0.0800781 14.8219H2.59703V14.2379H0.08163L0.0800781 14.8219ZM4.85789 14.8219H7.37872V14.2379H4.85789V14.8219ZM9.67878 14.8219H12.0995V14.2379H9.67878V14.8219Z" fill="#B3B3B3"/>
<path fill-rule="evenodd" clip-rule="evenodd" d="M0.0783125 15.386H2.59642V14.8223H0.0794766L0.0783125 15.386ZM4.85729 15.386H7.37812V14.8223H4.85729V15.386ZM9.67817 15.386H12.0989V14.8223H9.67817V15.386ZM0.0771484 15.97H2.59642V15.386H0.0783125L0.0771484 15.97ZM4.85729 15.97H7.37812V15.386H4.85729V15.97ZM9.67817 15.97H12.0989V15.386H9.67817V15.97Z" fill="#B3B3B3"/>
<path fill-rule="evenodd" clip-rule="evenodd" d="M0.0761719 16.5537H2.597V15.9697H0.0777241L0.0761719 16.5537ZM4.85748 16.5537H7.37831V15.9697H4.85748V16.5537ZM9.67836 16.5537H12.0991V15.9697H9.67836V16.5537Z" fill="#B3B3B3"/>
<path fill-rule="evenodd" clip-rule="evenodd" d="M0.0753828 17.1175H2.59737V16.5537H0.0765466L0.0753828 17.1175ZM4.85785 17.1175H7.37868V16.5537H4.85785V17.1175ZM9.67874 17.1175H12.0995V16.5537H9.67874V17.1175ZM0.0742188 17.7018H2.59737V17.1175H0.0753828L0.0742188 17.7018ZM4.85785 17.7018H7.37868V17.1175H4.85785V17.7018ZM9.67874 17.7018H12.0995V17.1175H9.67874V17.7018Z" fill="#B3B3B3"/>
<path fill-rule="evenodd" clip-rule="evenodd" d="M0.0726407 18.2649H2.59696V17.7012H0.0738044L0.0726407 18.2649ZM4.85783 18.2649H7.37865V17.7012H4.85783V18.2649ZM9.67871 18.2649H12.0994V17.7012H9.67871V18.2649ZM0.0714766 18.8493H2.59735V18.2649H0.0730285L0.0714766 18.8493ZM4.85783 18.8493H7.37865V18.2649H4.85783V18.8493ZM9.67871 18.8493H12.0994V18.2649H9.67871V18.8493ZM0.0703125 19.4328H2.59735V18.8493H0.0714766L0.0703125 19.4328ZM4.85783 19.4328H7.37865V18.8493H4.85783V19.4328ZM9.67871 19.4328H12.0994V18.8493H9.67871V19.4328Z" fill="#B3B3B3"/>
<path fill-rule="evenodd" clip-rule="evenodd" d="M0.0685469 19.9981H2.59713V19.4336H0.0700988L0.0685469 19.9981ZM4.85761 19.9981H7.37844V19.4336H4.85761V19.9981ZM9.6785 19.9981H12.0992V19.4336H9.6785V19.9981ZM0.0673828 20.5817H2.59675V19.9981H0.0681588L0.0673828 20.5817ZM4.85761 20.5817H7.37844V19.9981H4.85761V20.5817ZM9.6785 20.5817H12.0992V19.9981H9.6785V20.5817Z" fill="#B3B3B3"/>
<path fill-rule="evenodd" clip-rule="evenodd" d="M0.066005 21.1654H2.59653V20.5811H0.0671691L0.066005 21.1654ZM4.8574 21.1654H7.37823V20.5811H4.8574V21.1654ZM9.67828 21.1654H12.099V20.5811H9.67828V21.1654ZM0.0644531 21.7295H2.59653V21.1658H0.066005L0.0644531 21.7295ZM4.8574 21.7295H7.37823V21.1658H4.8574V21.7295ZM9.67828 21.7295H12.099V21.1658H9.67828V21.7295Z" fill="#B3B3B3"/>
<path fill-rule="evenodd" clip-rule="evenodd" d="M0.0644531 22.3138H2.5977V21.7295H0.0656172L0.0644531 22.3138ZM4.85818 22.3138H7.379V21.7295H4.85818V22.3138ZM9.67906 22.3138H12.0998V21.7295H9.67906V22.3138Z" fill="#B3B3B3"/>
<path fill-rule="evenodd" clip-rule="evenodd" d="M0.0626875 22.897H2.59709V22.3135H0.0638513L0.0626875 22.897ZM4.85796 22.897H7.37879V22.3135H4.85796V22.897ZM9.67884 22.897H12.0996V22.3135H9.67884V22.897ZM0.0615234 23.4608H2.59709V22.897H0.0626875L0.0615234 23.4608ZM4.85796 23.4608H7.37879V22.897H4.85796V23.4608ZM9.67884 23.4608H12.0996V22.897H9.67884V23.4608Z" fill="#B3B3B3"/>
<path fill-rule="evenodd" clip-rule="evenodd" d="M0.059945 24.0453H2.59668V23.4609H0.0611091L0.059945 24.0453ZM4.85755 24.0453H7.37838V23.4609H4.85755V24.0453ZM9.67843 24.0453H12.0992V23.4609H9.67843V24.0453ZM0.0591691 24.6296H2.59707V24.0453H0.0603332L0.0591691 24.6296ZM4.85755 24.6296H7.37838V24.0453H4.85755V24.6296ZM9.67843 24.6296H12.0992V24.0453H9.67843V24.6296ZM0.0576172 25.1933H2.59707V24.6296H0.0591691L0.0576172 25.1933ZM4.85755 25.1933H7.37838V24.6296H4.85755V25.1933ZM9.67843 25.1933H12.0992V24.6296H9.67843V25.1933Z" fill="#B3B3B3"/>
<path fill-rule="evenodd" clip-rule="evenodd" d="M0.0566406 25.7769H2.59726V25.1934H0.0578047L0.0566406 25.7769ZM4.85774 25.7769H7.37856V25.1934H4.85774V25.7769ZM9.67862 25.7769H12.0993V25.1934H9.67862V25.7769Z" fill="#B3B3B3"/>
<path fill-rule="evenodd" clip-rule="evenodd" d="M30.7246 3.60445H31.0548L30.7246 3.02051V3.60445ZM30.7246 4.20856H31.397L31.0548 3.60445H30.7246V4.20856Z" fill="#B3B3B3"/>
<path fill-rule="evenodd" clip-rule="evenodd" d="M30.7246 4.8131H31.7388L31.397 4.20898H30.7246V4.8131ZM35.6258 4.8131H37.9864V4.22916H35.6258V4.8131Z" fill="#B3B3B3"/>
<path fill-rule="evenodd" clip-rule="evenodd" d="M30.7246 5.41798H32.0811L31.7388 4.81348H30.7246V5.41798ZM35.6258 5.41798H37.9864V4.81348H35.6258V5.41798Z" fill="#B3B3B3"/>
<path fill-rule="evenodd" clip-rule="evenodd" d="M30.7246 6.00191H32.4112L32.0811 5.41797H30.7246V6.00191ZM35.6258 6.00191H37.9864V5.41797H35.6258V6.00191Z" fill="#B3B3B3"/>
<path fill-rule="evenodd" clip-rule="evenodd" d="M30.7246 6.60607H32.7535L32.4112 6.00195H30.7246V6.60607ZM35.6258 6.60607H37.9864V6.00195H35.6258V6.60607ZM30.7246 7.21018H33.0953L32.7535 6.60607H30.7246V7.21018ZM35.6258 7.21018H37.9864V6.60607H35.6258V7.21018Z" fill="#B3B3B3"/>
<path fill-rule="evenodd" clip-rule="evenodd" d="M30.724 7.81369H33.4369L33.0947 7.20996H30.724V7.81369ZM35.6252 7.81369H37.9858V7.20996H35.6252V7.81369ZM30.724 8.39801H33.7671L33.4365 7.81369H30.7236V8.39801H30.724ZM35.6252 8.39801H37.9858V7.81369H35.6252V8.39801Z" fill="#B3B3B3"/>
<path fill-rule="evenodd" clip-rule="evenodd" d="M30.7246 9.00255H34.1095L33.7677 8.39844H30.7246V9.00255ZM35.6258 9.00255H37.9864V8.39844H35.6258V9.00255ZM30.7246 9.60666H34.4521L34.1095 9.00255H30.7246V9.60666ZM35.6258 9.60666H37.9864V9.00255H35.6258V9.60666Z" fill="#B3B3B3"/>
<path fill-rule="evenodd" clip-rule="evenodd" d="M30.7246 10.21H34.7939L34.4521 9.60547H30.7246V10.21ZM35.6258 10.21H37.9864V9.60547H35.6258V10.21Z" fill="#B3B3B3"/>
<path fill-rule="evenodd" clip-rule="evenodd" d="M30.7246 10.7939H35.1241L34.7936 10.21H30.7246V10.7939ZM35.6258 10.7939H37.9864V10.21H35.6258V10.7939ZM30.7246 11.398H35.466L35.1241 10.7939H30.7246V11.398ZM35.6258 11.398H37.9864V10.7939H35.6258V11.398Z" fill="#B3B3B3"/>
<path fill-rule="evenodd" clip-rule="evenodd" d="M30.7246 12.0026H37.9864V11.3984H35.6258V11.6809L35.466 11.3984H30.7246V12.0026ZM30.7246 12.6067H33.0448V12.0631L33.3948 12.6067H37.9864V12.0026H30.7246V12.6067Z" fill="#B3B3B3"/>
<path fill-rule="evenodd" clip-rule="evenodd" d="M30.7246 13.1904H33.0448V12.6064H30.7246V13.1904ZM33.77 13.1904H37.9864V12.6064H33.3948L33.77 13.1904Z" fill="#B3B3B3"/>
<path fill-rule="evenodd" clip-rule="evenodd" d="M30.7246 13.7945H33.0448V13.1904H30.7246V13.7945ZM34.1588 13.7945H37.9864V13.1904H33.77L34.1588 13.7945Z" fill="#B3B3B3"/>
<path fill-rule="evenodd" clip-rule="evenodd" d="M30.7246 14.399H33.0448V13.7949H30.7246V14.399ZM34.5476 14.399H37.9864V13.7949H34.1588L34.5476 14.399Z" fill="#B3B3B3"/>
<path fill-rule="evenodd" clip-rule="evenodd" d="M30.7246 14.9828H33.0448V14.3984H30.7246V14.9828ZM34.9228 14.9828H37.9864V14.3984H34.5476L34.9228 14.9828Z" fill="#B3B3B3"/>
<path fill-rule="evenodd" clip-rule="evenodd" d="M30.7246 15.5875H33.0448V14.9834H30.7246V15.5875ZM35.3111 15.5875H37.9864V14.9834H34.9228L35.3111 15.5875Z" fill="#B3B3B3"/>
<path fill-rule="evenodd" clip-rule="evenodd" d="M30.7246 16.191H33.0448V15.5869H30.7246V16.191ZM35.6999 16.191H37.9864V15.5869H35.3111L35.6999 16.191ZM30.7246 16.7951H33.0448V16.191H30.7246V16.7951ZM35.7259 16.7951H37.9864V16.191H35.6999L35.7255 16.2314V16.7951H35.7259ZM30.7246 17.3795H33.0448V16.7951H30.7246V17.3795ZM35.7259 17.3795H37.9864V16.7951H35.7259V17.3795Z" fill="#B3B3B3"/>
<path fill-rule="evenodd" clip-rule="evenodd" d="M30.7246 17.983H33.0448V17.3789H30.7246V17.983ZM35.7259 17.983H37.9864V17.3789H35.7259V17.983ZM30.7246 18.5871H33.0448V17.983H30.7246V18.5871ZM35.7259 18.5871H37.9864V17.983H35.7259V18.5871Z" fill="#B3B3B3"/>
<path fill-rule="evenodd" clip-rule="evenodd" d="M30.7246 19.1918H33.0448V18.5869H30.7246V19.1918ZM35.7259 19.1918H37.9864V18.5869H35.7259V19.1918Z" fill="#B3B3B3"/>
<path fill-rule="evenodd" clip-rule="evenodd" d="M30.7246 19.7759H33.0448V19.1924H30.7246V19.7759ZM35.7259 19.7759H37.9864V19.1924H35.7259V19.7759ZM30.7246 20.3808H33.0448V19.7759H30.7246V20.3808ZM35.7259 20.3808H37.9864V19.7759H35.7259V20.3808Z" fill="#B3B3B3"/>
<path fill-rule="evenodd" clip-rule="evenodd" d="M30.7246 20.985H33.0448V20.3809H30.7246V20.985ZM35.7259 20.985H37.9864V20.3809H35.7259V20.985Z" fill="#B3B3B3"/>
<path fill-rule="evenodd" clip-rule="evenodd" d="M30.7246 21.5885H33.0448V20.9844H30.7246V21.5885ZM35.7259 21.5885H37.9864V20.9844H35.7259V21.5885ZM30.7246 22.1728H33.0448V21.5885H30.7246V22.1728ZM35.7259 22.1728H37.9864V21.5885H35.7259V22.1728Z" fill="#B3B3B3"/>
<path fill-rule="evenodd" clip-rule="evenodd" d="M30.7246 22.777H33.0448V22.1729H30.7246V22.777ZM35.7259 22.777H37.9864V22.1729H35.7259V22.777Z" fill="#B3B3B3"/>
<path fill-rule="evenodd" clip-rule="evenodd" d="M30.7246 23.3805H33.0448V22.7764H30.7246V23.3805ZM35.7259 23.3805H37.9864V22.7764H35.7259V23.3805Z" fill="#B3B3B3"/>
<path fill-rule="evenodd" clip-rule="evenodd" d="M30.7246 23.985H33.0448V23.3809H30.7246V23.985ZM35.7259 23.985H37.9864V23.3809H35.7259V23.985Z" fill="#B3B3B3"/>
<path fill-rule="evenodd" clip-rule="evenodd" d="M30.7246 24.5687H33.0448V23.9844H30.7246V24.5687ZM35.7259 24.5687H37.9864V23.9844H35.7259V24.5687ZM30.7246 25.1728H33.0448V24.5687H30.7246V25.1728ZM35.7259 25.1728H37.9864V24.5687H35.7259V25.1728Z" fill="#B3B3B3"/>
<path fill-rule="evenodd" clip-rule="evenodd" d="M30.7246 25.777H33.0448V25.1729H30.7246V25.777ZM35.7259 25.777H37.9864V25.1729H35.7259V25.777Z" fill="#B3B3B3"/>
<path fill-rule="evenodd" clip-rule="evenodd" d="M51.957 0.846225H53.8097V0C53.8097 0 53.064 0.255303 51.957 0.846225Z" fill="#B3B3B3"/>
<path fill-rule="evenodd" clip-rule="evenodd" d="M50.5244 1.69213H53.8096V0.84668H51.9569C51.4675 1.10775 50.9895 1.38983 50.5244 1.69213Z" fill="#B3B3B3"/>
<path fill-rule="evenodd" clip-rule="evenodd" d="M49.3514 2.51707H53.8102V1.69141H50.525C50.1239 1.95226 49.7324 2.22767 49.3514 2.51707ZM48.3162 3.3629H53.8102V2.51707H49.3514C48.9966 2.78691 48.6513 3.06902 48.3162 3.3629ZM47.416 4.20874H52.9194C53.4657 3.95227 53.8106 3.84635 53.8106 3.84635V3.3629H48.3166C48.0067 3.6344 47.7064 3.91651 47.416 4.20874Z" fill="#B3B3B3"/>
<path fill-rule="evenodd" clip-rule="evenodd" d="M46.6281 5.05423H51.4168C51.8965 4.73651 52.3985 4.45371 52.9188 4.20801H47.4154C47.1438 4.48142 46.8813 4.76364 46.6281 5.05423ZM45.9395 5.90007H50.2815C50.6437 5.597 51.0227 5.31473 51.4168 5.05462H46.6281C46.3895 5.32888 46.1598 5.61085 45.9395 5.90007Z" fill="#B3B3B3"/>
<path fill-rule="evenodd" clip-rule="evenodd" d="M45.3342 6.74623H49.3678C49.6576 6.4488 49.9624 6.16648 50.2812 5.90039H45.9391C45.7285 6.17579 45.5267 6.45788 45.3342 6.74623ZM44.8174 7.57189H48.6345C48.8663 7.28553 49.1111 7.01002 49.3682 6.74623H45.3346C45.1561 7.01201 44.9842 7.2871 44.8174 7.57189Z" fill="#B3B3B3"/>
<path fill-rule="evenodd" clip-rule="evenodd" d="M44.3565 8.4181H48.0083C48.2048 8.1272 48.4139 7.84499 48.6349 7.57227H44.8178C44.6558 7.84967 44.502 8.13173 44.3565 8.4181ZM43.958 9.26433H47.4888C47.6556 8.9679 47.8291 8.68621 48.0087 8.41849H44.3569C44.2172 8.69242 44.0837 8.9741 43.958 9.26433Z" fill="#B3B3B3"/>
<path fill-rule="evenodd" clip-rule="evenodd" d="M43.6172 10.1095H47.0583C47.1911 9.82225 47.3346 9.5401 47.4886 9.26367H43.9578C43.8366 9.54245 43.723 9.8245 43.6172 10.1095Z" fill="#B3B3B3"/>
<path fill-rule="evenodd" clip-rule="evenodd" d="M43.3303 10.9552H46.7062C46.8153 10.6627 46.9328 10.3802 47.0578 10.1094H43.6166C43.5153 10.3849 43.4199 10.6669 43.3303 10.9552ZM43.0986 11.7809H46.4269C46.5134 11.4965 46.6065 11.2214 46.7066 10.9552H43.3307C43.2461 11.2283 43.1687 11.5037 43.0986 11.7809Z" fill="#B3B3B3"/>
<path fill-rule="evenodd" clip-rule="evenodd" d="M42.9056 12.6261H46.2036C46.2711 12.3355 46.3452 12.0534 46.4271 11.7803H43.0989C43.0273 12.0605 42.9629 12.3426 42.9056 12.6261ZM42.7578 13.4719H46.0337C46.083 13.1817 46.1396 12.9 46.2036 12.6261H42.9056C42.8502 12.9028 42.8009 13.1848 42.7578 13.4719Z" fill="#B3B3B3"/>
<path fill-rule="evenodd" clip-rule="evenodd" d="M42.6507 14.3175H45.9138C45.9464 14.0281 45.9867 13.746 46.0329 13.4717H42.757C42.715 13.7528 42.6796 14.0348 42.6507 14.3175ZM42.5805 15.1634H45.8412C45.8587 14.8747 45.8827 14.5926 45.9142 14.3175H42.6511C42.6214 14.5989 42.5978 14.8809 42.5805 15.1634ZM42.5518 15.989H45.8109C45.8148 15.7081 45.8245 15.4326 45.8412 15.1637H42.5805C42.5653 15.4386 42.5557 15.7138 42.5518 15.989Z" fill="#B3B3B3"/>
<path fill-rule="evenodd" clip-rule="evenodd" d="M42.5544 16.8351H45.8206C45.8127 16.6338 45.8086 16.4324 45.8086 16.231C45.8086 16.1499 45.8101 16.07 45.8117 15.9893H42.5525C42.551 16.1029 42.5479 16.2166 42.5479 16.3319C42.5479 16.5018 42.551 16.6694 42.5544 16.8351ZM50.5495 16.8351H53.8103V16.3319H50.5495V16.8351Z" fill="#B3B3B3"/>
<path fill-rule="evenodd" clip-rule="evenodd" d="M42.5978 17.6816H45.8798C45.8522 17.4 45.8325 17.1177 45.8209 16.835H42.5547C42.5628 17.1221 42.5772 17.4042 42.5978 17.6816ZM50.5494 17.6816H53.8101V16.835H50.5494V17.6816Z" fill="#B3B3B3"/>
<path fill-rule="evenodd" clip-rule="evenodd" d="M42.6764 18.5285H45.9895C45.9442 18.2477 45.9076 17.9656 45.8797 17.6826H42.5977C42.6178 17.969 42.6438 18.2518 42.6764 18.5285ZM50.5493 18.5285H53.81V17.6826H50.5493V18.5285Z" fill="#B3B3B3"/>
<path fill-rule="evenodd" clip-rule="evenodd" d="M42.8017 19.3732H46.1536C46.0902 19.093 46.0356 18.8109 45.9899 18.5273H42.6768C42.7117 18.8149 42.754 19.0965 42.8017 19.3732ZM50.5496 19.3732H53.8104V18.5273H50.5496V19.3732Z" fill="#B3B3B3"/>
<path fill-rule="evenodd" clip-rule="evenodd" d="M42.9709 20.2189H46.3764C46.2928 19.9395 46.2186 19.6574 46.1537 19.373H42.8018C42.8518 19.6609 42.9081 19.943 42.9709 20.2189ZM50.5497 20.2189H53.8104V19.373H50.5497V20.2189Z" fill="#B3B3B3"/>
<path fill-rule="evenodd" clip-rule="evenodd" d="M43.1806 21.044H46.6536C46.5516 20.7722 46.4591 20.497 46.3762 20.2188H42.9707C43.0343 20.5 43.1038 20.7751 43.1806 21.044ZM50.5495 21.044H53.8102V20.2188H50.5495V21.044ZM43.4464 21.8906H47.0059C46.8786 21.6127 46.761 21.3303 46.6536 21.044H43.1806C43.2625 21.3327 43.3509 21.6155 43.4464 21.8906ZM50.5495 21.8906H53.8102V21.044H50.5495V21.8906Z" fill="#B3B3B3"/>
<path fill-rule="evenodd" clip-rule="evenodd" d="M43.7677 22.7365H47.4332C47.2798 22.46 47.137 22.1778 47.0048 21.8906H43.4453C43.5466 22.1797 43.6541 22.4614 43.7677 22.7365ZM50.5488 22.7365H53.8095V21.8906H50.5488V22.7365Z" fill="#B3B3B3"/>
<path fill-rule="evenodd" clip-rule="evenodd" d="M44.1511 23.5822H47.9477C47.7655 23.307 47.5942 23.0248 47.434 22.7363H43.7686C43.8888 23.0258 44.0169 23.3079 44.1511 23.5822ZM50.5492 23.5822H53.81V22.7363H50.5492V23.5822Z" fill="#B3B3B3"/>
<path fill-rule="evenodd" clip-rule="evenodd" d="M44.5991 24.4279H48.5617C48.3452 24.1548 48.1404 23.8726 47.9479 23.582H44.1514C44.2938 23.873 44.4439 24.1543 44.5991 24.4279ZM50.5495 24.4279H53.8102V23.582H50.5495V24.4279Z" fill="#B3B3B3"/>
<path fill-rule="evenodd" clip-rule="evenodd" d="M45.105 25.253H49.2775C49.0264 24.9889 48.7874 24.7135 48.5613 24.4277H44.5986C44.7582 24.7083 44.9271 24.9836 45.105 25.253ZM50.549 25.253H53.8097V24.4277H50.549V25.253Z" fill="#B3B3B3"/>
<path fill-rule="evenodd" clip-rule="evenodd" d="M45.7034 26.0995H50.182C49.8641 25.8356 49.5622 25.5529 49.278 25.2529H45.1055C45.2954 25.5417 45.4948 25.824 45.7034 26.0995ZM50.5495 26.0995H53.8102V25.2529H50.5495V26.0995Z" fill="#B3B3B3"/>
<path fill-rule="evenodd" clip-rule="evenodd" d="M46.3903 26.9454H53.81V26.0996H50.5492V26.3817C50.5492 26.3817 50.4115 26.2886 50.1818 26.0996H45.7031C45.9225 26.3892 46.1517 26.6713 46.3903 26.9454Z" fill="#B3B3B3"/>
<path fill-rule="evenodd" clip-rule="evenodd" d="M47.181 27.7911H53.8103V26.9453H46.3906C46.649 27.2425 46.9136 27.5234 47.181 27.7911Z" fill="#B3B3B3"/>
<path fill-rule="evenodd" clip-rule="evenodd" d="M48.0925 28.6369H53.81V27.791H47.1807C47.4745 28.0837 47.7786 28.3658 48.0925 28.6369Z" fill="#B3B3B3"/>
<path fill-rule="evenodd" clip-rule="evenodd" d="M49.1489 29.4826H53.8103V28.6367H48.0928C48.434 28.9319 48.7863 29.214 49.1489 29.4826ZM50.3567 30.3086H53.8099V29.4826H49.1485C49.5406 29.7732 49.9436 30.0487 50.3567 30.3086ZM51.8467 31.1544H53.8103V30.3086H50.3571C50.8926 30.6442 51.397 30.9255 51.8467 31.1544Z" fill="#B3B3B3"/>
<path fill-rule="evenodd" clip-rule="evenodd" d="M53.8103 32.0001V31.1543H51.8467C53.0153 31.7495 53.8103 32.0001 53.8103 32.0001Z" fill="#B3B3B3"/>
<path fill-rule="evenodd" clip-rule="evenodd" d="M59.3516 17.1575H61.7319V16.9961H59.3516V17.1575ZM64.5131 17.1575H66.9936V16.9961H64.5131V17.1575ZM59.3516 17.7411H61.7319V17.1575H59.3516V17.7411ZM64.5131 17.7411H66.9936V17.1575H64.5131V17.7411Z" fill="#B3B3B3"/>
<path fill-rule="evenodd" clip-rule="evenodd" d="M59.3516 18.3265H61.7319V17.7422H59.3516V18.3265ZM64.5131 18.3265H66.9936V17.7422H64.5131V18.3265Z" fill="#B3B3B3"/>
<path fill-rule="evenodd" clip-rule="evenodd" d="M59.3516 18.9097H61.7319V18.3262H59.3516V18.9097ZM64.5131 18.9097H66.9936V18.3262H64.5131V18.9097ZM59.3516 19.494H61.7319V18.9097H59.3516V19.494ZM64.5131 19.494H66.9936V18.9097H64.5131V19.494Z" fill="#B3B3B3"/>
<path fill-rule="evenodd" clip-rule="evenodd" d="M59.3516 20.0785H61.7319V19.4941H59.3516V20.0785ZM64.5131 20.0785H66.9936V19.4941H64.5131V20.0785ZM59.3516 20.6628H61.7319V20.0785H59.3516V20.6628ZM64.5131 20.6628H66.9936V20.0785H64.5131V20.6628Z" fill="#B3B3B3"/>
<path fill-rule="evenodd" clip-rule="evenodd" d="M59.3516 21.2457H61.7319V20.6621H59.3516V21.2457ZM64.5131 21.2457H66.9936V20.6621H64.5131V21.2457ZM59.3516 21.8498H61.7319V21.2457H59.3516V21.8498ZM64.5131 21.8498H66.9936V21.2457H64.5131V21.8498ZM59.3516 22.4341H61.7319V21.8498H59.3516V22.4341ZM64.5131 22.4341H66.9936V21.8498H64.5131V22.4341Z" fill="#B3B3B3"/>
<path fill-rule="evenodd" clip-rule="evenodd" d="M59.4102 23.0179H61.9927C61.7812 22.7238 61.732 22.4336 61.732 22.4336H59.3516C59.3516 22.4336 59.3481 22.6691 59.4102 23.0179ZM64.4072 23.0179H66.9521C66.9808 22.8239 66.9909 22.6648 66.9936 22.5624V22.4336H64.5131C64.5131 22.4336 64.5419 22.7238 64.4072 23.0179ZM59.5603 23.6015H62.984C62.4816 23.5293 62.1762 23.2724 61.9927 23.0179H59.4102C59.4412 23.1898 59.4882 23.3892 59.5603 23.6015ZM63.5606 23.6015H66.819C66.885 23.3892 66.9257 23.1898 66.9517 23.0179H64.4068C64.2904 23.2724 64.0503 23.5293 63.5606 23.6015Z" fill="#B3B3B3"/>
<path fill-rule="evenodd" clip-rule="evenodd" d="M59.8143 24.1869H66.5837C66.6854 23.989 66.7618 23.7907 66.8192 23.6025H63.5608C63.3696 23.6304 63.1754 23.6304 62.9842 23.6025H59.5605C59.6242 23.7903 59.7064 23.989 59.8143 24.1869Z" fill="#B3B3B3"/>
<path fill-rule="evenodd" clip-rule="evenodd" d="M60.2207 24.7709H66.1966C66.3472 24.5912 66.4771 24.3952 66.5839 24.1865H59.8145C59.9279 24.3957 60.0642 24.5916 60.2207 24.7709ZM60.9055 25.3544H65.5312C65.781 25.1944 66.0054 24.9976 66.1966 24.7709H60.2207C60.4192 24.9978 60.6499 25.1944 60.9055 25.3544Z" fill="#B3B3B3"/>
<path fill-rule="evenodd" clip-rule="evenodd" d="M65.531 25.3535H60.9053C61.4601 25.7019 62.2117 25.9378 63.2325 25.9378C64.2483 25.9378 64.9901 25.7023 65.531 25.3535Z" fill="#B3B3B3"/>
<path fill-rule="evenodd" clip-rule="evenodd" d="M60.8932 4.26948H65.4696C64.9155 3.92029 64.1609 3.68555 63.1327 3.68555C62.1549 3.68516 61.4305 3.92029 60.8932 4.26948ZM60.2285 4.85342H66.1509C65.954 4.6261 65.7244 4.4293 65.4696 4.26948H60.8932C60.6443 4.43066 60.4204 4.6274 60.2285 4.85342Z" fill="#B3B3B3"/>
<path fill-rule="evenodd" clip-rule="evenodd" d="M59.8308 5.43745H66.5494C66.4385 5.22875 66.3048 5.03292 66.1509 4.85352H60.2285C60.0756 5.03345 59.9422 5.2292 59.8308 5.43745ZM59.5775 6.02139H66.7962C66.7312 5.81983 66.6485 5.62442 66.549 5.43745H59.8305C59.7303 5.62487 59.6457 5.82017 59.5775 6.02139ZM59.4238 6.60572H61.9489C62.1348 6.33373 62.477 6.08192 63.1121 6.08192C63.7578 6.08192 64.1058 6.33334 64.2928 6.60572H66.9398C66.9068 6.40775 66.8589 6.21255 66.7966 6.02178H59.5779C59.513 6.21261 59.4616 6.40773 59.4238 6.60572Z" fill="#B3B3B3"/>
<path fill-rule="evenodd" clip-rule="evenodd" d="M59.3532 7.18979H61.7375C61.7604 6.98106 61.8329 6.78083 61.9489 6.60586H59.4239C59.373 6.87164 59.3579 7.08154 59.3532 7.18979ZM64.5074 7.18979H66.9937V7.14362C66.988 6.96322 66.97 6.78342 66.9398 6.60547H64.2928C64.448 6.83012 64.4934 7.06874 64.5074 7.18979ZM59.3517 7.79391H61.7321V7.27011C61.7321 7.27011 61.7321 7.23985 61.7375 7.18979H59.3532C59.3509 7.2414 59.3517 7.27011 59.3517 7.27011V7.79391ZM64.5132 7.79391H66.9937V7.18979H64.5074C64.5136 7.23985 64.5136 7.27011 64.5136 7.27011V7.79391H64.5132Z" fill="#B3B3B3"/>
<path fill-rule="evenodd" clip-rule="evenodd" d="M59.3516 8.3773H61.7319V7.79297H59.3516V8.3773ZM64.5131 8.3773H66.9936V7.79297H64.5131V8.3773ZM59.3516 8.96123H61.7319V8.3773H59.3516V8.96123ZM64.5131 8.96123H66.9936V8.3773H64.5131V8.96123Z" fill="#B3B3B3"/>
<path fill-rule="evenodd" clip-rule="evenodd" d="M59.3516 9.54585H61.7319V8.96191H59.3516V9.54585ZM64.5131 9.54585H66.9936V8.96191H64.5131V9.54585ZM59.3516 10.1302H61.7319V9.54624H59.3516V10.1302ZM64.5131 10.1302H66.9936V9.54624H64.5131V10.1302Z" fill="#B3B3B3"/>
<path fill-rule="evenodd" clip-rule="evenodd" d="M59.3516 10.7138H61.7319V10.1299H59.3516V10.7138ZM64.5131 10.7138H66.9936V10.1299H64.5131V10.7138ZM59.3516 11.2978H61.7319V10.7138H59.3516V11.2978ZM64.5131 11.2978H66.9936V10.7138H64.5131V11.2978ZM59.3516 11.8817H61.7319V11.2978H59.3516V11.8817ZM64.5131 11.8817H66.9936V11.2978H64.5131V11.8817Z" fill="#B3B3B3"/>
<path fill-rule="evenodd" clip-rule="evenodd" d="M59.3516 12.4658H61.7319V11.8818H59.3516V12.4658ZM64.5131 12.4658H66.9936V11.8818H64.5131V12.4658Z" fill="#B3B3B3"/>
<path fill-rule="evenodd" clip-rule="evenodd" d="M59.3516 13.0492H61.7319V12.4648H59.3516V13.0492ZM64.5131 13.0492H66.9936V12.4648H64.5131V13.0492Z" fill="#B3B3B3"/>
<path fill-rule="evenodd" clip-rule="evenodd" d="M59.3516 13.6337H61.7319V13.0498H59.3516V13.6337ZM64.5131 13.6337H66.9936V13.0498H64.5131V13.6337ZM59.3516 14.2181H61.7319V13.6341H59.3516V14.2181ZM64.5131 14.2181H66.9936V13.6341H64.5131V14.2181ZM59.3516 14.8222H61.7319V14.2181H59.3516V14.8222ZM64.5131 14.8222H66.9936V14.2181H64.5131V14.8222Z" fill="#B3B3B3"/>
<path fill-rule="evenodd" clip-rule="evenodd" d="M59.3516 15.4062H61.7319V14.8223H59.3516V15.4062ZM64.5131 15.4062H66.9936V14.8223H64.5131V15.4062ZM59.3516 15.9901H61.7319V15.4062H59.3516V15.9901ZM64.5131 15.9901H66.9936V15.4062H64.5131V15.9901Z" fill="#B3B3B3"/>
<path fill-rule="evenodd" clip-rule="evenodd" d="M59.3516 16.5736H61.7319V15.9893H59.3516V16.5736ZM64.5131 16.5736H66.9936V15.9893H64.5131V16.5736ZM66.9936 16.9965V16.5736H64.5131V16.9965H66.9936ZM61.7319 16.5736H59.3516V16.9965H61.7319V16.5736Z" fill="#B3B3B3"/>
<path fill-rule="evenodd" clip-rule="evenodd" d="M19.439 4.43062H24.0512C23.5103 4.08258 22.7665 3.84668 21.7426 3.84668C20.7233 3.84668 19.9807 4.08258 19.439 4.43062ZM18.7725 5.01456H24.7139C24.5239 4.78723 24.3003 4.5903 24.0508 4.43062H19.439C19.1887 4.59059 18.964 4.78746 18.7725 5.01456Z" fill="#B3B3B3"/>
<path fill-rule="evenodd" clip-rule="evenodd" d="M18.3955 5.57841H25.0854C24.9826 5.3774 24.8579 5.18833 24.7137 5.01465H18.7719C18.6262 5.18829 18.5 5.37733 18.3955 5.57841Z" fill="#B3B3B3"/>
<path fill-rule="evenodd" clip-rule="evenodd" d="M18.1557 6.16206H25.3205C25.26 5.96074 25.1815 5.76529 25.0858 5.57812H18.3959C18.2988 5.76531 18.2184 5.96072 18.1557 6.16206ZM18.0215 6.74639H20.6541C20.8353 6.50156 21.1689 6.26294 21.7824 6.26294C22.4152 6.26294 22.75 6.50156 22.9262 6.74639H25.4489C25.4215 6.54871 25.3787 6.35348 25.3209 6.16245H18.1557C18.0886 6.37702 18.0471 6.57683 18.0215 6.74639Z" fill="#B3B3B3"/>
<path fill-rule="evenodd" clip-rule="evenodd" d="M17.9809 7.30986H20.4416V7.2695C20.4416 7.2695 20.4629 7.00411 20.6538 6.74609H18.0212C17.9735 7.06076 17.9809 7.2695 17.9809 7.2695V7.30986ZM23.1223 7.30986H25.4828V7.14379C25.4788 7.01068 25.4673 6.87791 25.4483 6.74609H22.9255C23.1118 7.00411 23.1223 7.2695 23.1223 7.2695V7.30986ZM17.9809 7.89379H20.4416V7.30986H17.9809V7.89379ZM23.1223 7.89379H25.4828V7.30986H23.1223V7.89379Z" fill="#B3B3B3"/>
<path fill-rule="evenodd" clip-rule="evenodd" d="M17.9814 8.47847H20.4421V7.89453H17.9814V8.47847ZM23.1228 8.47847H25.4834V7.89453H23.1228V8.47847ZM17.9814 9.04223H20.4421V8.47847H17.9814V9.04223ZM23.1228 9.04223H25.4834V8.47847H23.1228V9.04223Z" fill="#B3B3B3"/>
<path fill-rule="evenodd" clip-rule="evenodd" d="M17.9814 9.62593H20.4421V9.04199H17.9814V9.62593ZM23.1228 9.62593H25.4834V9.04199H23.1228V9.62593ZM17.9814 10.1897H20.4421V9.62593H17.9814V10.1897ZM23.1228 10.1897H25.4834V9.62593H23.1228V10.1897Z" fill="#B3B3B3"/>
<path fill-rule="evenodd" clip-rule="evenodd" d="M17.9814 10.7748H20.4421V10.1904H17.9814V10.7748ZM23.1228 10.7748H25.4834V10.1904H23.1228V10.7748ZM17.9814 11.3587H20.4421V10.7748H17.9814V11.3587ZM23.1228 11.3587H25.4834V10.7748H23.1228V11.3587Z" fill="#B3B3B3"/>
<path fill-rule="evenodd" clip-rule="evenodd" d="M17.9814 11.9222H20.4421V11.3584H17.9814V11.9222ZM23.1228 11.9222H25.4834V11.3584H23.1228V11.9222Z" fill="#B3B3B3"/>
<path fill-rule="evenodd" clip-rule="evenodd" d="M17.9814 12.5062H20.4421V11.9219H17.9814V12.5062ZM23.1228 12.5062H25.4834V11.9219H23.1228V12.5062Z" fill="#B3B3B3"/>
<path fill-rule="evenodd" clip-rule="evenodd" d="M17.9814 13.0898H20.4421V12.5059H17.9814V13.0898ZM23.1228 13.0898H25.4834V12.5059H23.1228V13.0898Z" fill="#B3B3B3"/>
<path fill-rule="evenodd" clip-rule="evenodd" d="M17.9814 13.6536H20.4421V13.0898H17.9814V13.6536ZM23.1228 13.6536H25.4834V13.0898H23.1228V13.6536ZM17.9814 14.2375H20.4421V13.6536H17.9814V14.2375ZM23.1228 14.2375H25.4834V13.6536H23.1228V14.2375ZM17.9814 14.8219H20.4421V14.2379H17.9814V14.8219ZM23.1228 14.8219H25.4834V14.2379H23.1228V14.8219Z" fill="#B3B3B3"/>
<path fill-rule="evenodd" clip-rule="evenodd" d="M17.9814 15.386H20.4421V14.8223H17.9814V15.386ZM23.1228 15.386H25.4834V14.8223H23.1228V15.386ZM17.9814 15.97H20.4421V15.386H17.9814V15.97ZM23.1228 15.97H25.4834V15.386H23.1228V15.97Z" fill="#B3B3B3"/>
<path fill-rule="evenodd" clip-rule="evenodd" d="M17.9814 16.5537H20.4421V15.9697H17.9814V16.5537ZM23.1228 16.5537H25.4834V15.9697H23.1228V16.5537Z" fill="#B3B3B3"/>
<path fill-rule="evenodd" clip-rule="evenodd" d="M17.9814 17.1175H20.4421V16.5537H17.9814V17.1175ZM23.1228 17.1175H25.4834V16.5537H23.1228V17.1175ZM17.9814 17.7018H20.4421V17.1175H17.9814V17.7018ZM23.1228 17.7018H25.4834V17.1175H23.1228V17.7018Z" fill="#B3B3B3"/>
<path fill-rule="evenodd" clip-rule="evenodd" d="M17.9806 18.2649H20.4413V17.7012H17.9806V18.2649ZM23.122 18.2649H25.4826V17.7012H23.122V18.2649ZM17.9806 18.8493H20.4413V18.2649H17.9806V18.8493ZM23.122 18.8493H25.4826V18.2649H23.122V18.8493ZM14.8867 19.4328H25.4826V18.8493H23.122V18.9901H20.4413V18.8493H17.9806V18.9901H14.5996L14.8867 19.4328Z" fill="#B3B3B3"/>
<path fill-rule="evenodd" clip-rule="evenodd" d="M15.2526 19.9981H25.4826V19.4336H14.8867L15.2526 19.9981ZM15.6309 20.5817H25.4826V19.9981H15.2526L15.6309 20.5817Z" fill="#B3B3B3"/>
<path fill-rule="evenodd" clip-rule="evenodd" d="M16.0095 21.165H25.4825V20.5811H15.6309L16.0095 21.165ZM18.0807 21.7291H20.4013V21.4067H23.1821V21.7291H25.4825V21.165H16.0095L16.1403 21.3668H18.0807V21.7291Z" fill="#B3B3B3"/>
<path fill-rule="evenodd" clip-rule="evenodd" d="M18.0811 22.3138H20.4017V21.7295H18.0811V22.3138ZM23.1825 22.3138H25.4829V21.7295H23.1825V22.3138Z" fill="#B3B3B3"/>
<path fill-rule="evenodd" clip-rule="evenodd" d="M18.0811 22.897H20.4017V22.3135H18.0811V22.897ZM23.1825 22.897H25.4829V22.3135H23.1825V22.897ZM18.0811 23.4608H20.4017V22.897H18.0811V23.4608ZM23.1825 23.4608H25.4829V22.897H23.1825V23.4608Z" fill="#B3B3B3"/>
<path fill-rule="evenodd" clip-rule="evenodd" d="M18.0811 24.0453H20.4017V23.4609H18.0811V24.0453ZM23.1825 24.0453H25.4829V23.4609H23.1825V24.0453ZM18.0811 24.6296H20.4017V24.0453H18.0811V24.6296ZM23.1825 24.6296H25.4829V24.0453H23.1825V24.6296ZM18.0811 25.1933H20.4017V24.6296H18.0811V25.1933ZM23.1825 25.1933H25.4829V24.6296H23.1825V25.1933Z" fill="#B3B3B3"/>
<path fill-rule="evenodd" clip-rule="evenodd" d="M18.0811 25.7769H20.4017V25.1934H18.0811V25.7769ZM23.1825 25.7769H25.4829V25.1934H23.1825V25.7769Z" fill="#B3B3B3"/>
</svg>
